<?xml version="1.0" standalone="no"?>
<!DOCTYPE svg PUBLIC "-//W3C//DTD SVG 20010904//EN"
 "http://www.w3.org/TR/2001/REC-SVG-20010904/DTD/svg10.dtd">
<svg version="1.0" xmlns="http://www.w3.org/2000/svg"
 width="80.000000pt" height="70.000000pt" viewBox="0 0 80.000000 70.000000"
 preserveAspectRatio="xMidYMid meet">

<g transform="translate(0.000000,70.000000) scale(0.100000,-0.100000)"
fill="#000000" stroke="none">
<path d="M0 350 l0 -350 110 0 110 0 0 183 c0 181 15 347 32 347 5 0 13 11 17
23 8 21 18 25 78 30 37 4 88 7 113 7 l45 0 -1 -121 -2 -121 -31 -32 -31 -32 0
-142 0 -142 180 0 180 0 0 350 0 350 -400 0 -400 0 0 -350z"/>
</g>
</svg>
